<svg width="500" height="250" viewBox="0 0 500 250" fill="none" xmlns="http://www.w3.org/2000/svg">
<g id="Frame 15">
<g id="Group 107">
<path id="Travel" d="M315.229 96.7932C310.774 98.689 309.163 100.68 308.784 96.3193C307.267 80.3001 337.125 80.9636 347.173 82.4802C357.22 83.9969 353.808 94.6131 351.628 94.0444C345.561 92.433 338.831 92.3382 332.575 92.9069C334.282 94.9922 335.703 98.1202 335.703 102.86C335.798 115.846 335.04 133.95 335.609 139.448C336.556 148.832 339.779 150.917 333.808 151.865C328.405 152.623 324.803 150.348 324.613 143.144C324.329 135.941 325.277 116.983 325.087 111.864C324.898 106.746 325.371 104.187 323.95 96.888C323.76 95.9401 323.571 95.087 323.381 94.4235C319.969 95.087 317.22 96.0349 315.229 96.7932ZM351.762 109.969C350.245 109.4 350.719 107.978 352.425 107.789C352.425 107.789 356.501 107.22 359.155 109.684C361.904 112.149 361.809 119.542 361.809 119.542C361.809 119.542 364.937 111.011 367.023 108.926C369.108 106.746 371.762 107.409 372.899 108.831C374.037 110.158 375.933 112.907 375.269 116.414C374.511 119.921 374.132 123.239 374.511 125.324C374.795 127.504 374.89 129.779 370.625 128.452C366.264 127.125 366.549 119.068 366.549 119.068V115.182C366.549 115.182 361.714 124.092 361.43 134.045C361.241 143.903 362.473 143.618 359.155 144.282C355.838 144.945 352.71 143.429 353.089 133.666C353.563 123.903 353.373 113.476 353.373 113.476C353.373 113.476 353.184 110.632 351.762 109.969ZM401.481 107.599C403.756 109.495 402.808 109.495 401.291 109.874C395.415 111.296 391.813 121.438 390.486 126.367C386.599 141.154 389.822 137.647 390.675 136.604C391.528 135.656 394.372 127.031 395.983 121.154C397.595 115.277 396.836 114.708 397.974 113.097C408.116 109.4 407.547 128.263 407.453 131.865C406.979 144.187 412.192 143.903 407.547 145.04C395.13 147.979 398.353 129.211 399.016 122.007C396.173 129.4 395.509 139.922 387.547 142.955C384.23 144.187 380.912 143.429 379.68 138.595C376.741 125.988 390.58 98.5942 401.481 107.599ZM411.627 112.433C409.921 109.969 407.267 109.495 409.352 107.883C409.352 107.883 414.755 104.471 419.4 109.021C422.433 111.959 426.224 135.372 426.224 135.372C426.224 135.372 429.542 122.955 428.973 114.234C428.404 105.514 425.845 107.22 426.603 105.608C427.362 103.997 431.532 103.618 432.575 105.514C433.618 107.409 434.566 110.443 432.765 122.765C431.058 135.087 428.025 141.912 428.025 141.912C428.025 141.912 424.708 145.609 421.295 143.144C417.978 140.585 415.229 125.324 415.229 125.324C415.229 125.324 413.428 114.898 411.627 112.433ZM450.448 108.831C462.865 109.874 458.505 127.41 447.32 129.59C447.32 129.59 448.173 139.922 453.576 139.163C457.272 138.689 458.789 133.76 460.116 130.443C462.107 125.324 463.528 127.031 462.486 131.012C461.443 135.087 458.22 144.851 451.206 144.851C433.481 144.851 434.618 107.504 450.448 108.831ZM446.941 126.083C456.23 121.722 454.618 114.045 452.438 113.002C448.078 111.011 446.846 123.144 446.941 126.083ZM462.341 82.1959C461.677 79.7314 460.35 79.447 464.236 79.3522C470.682 79.1627 472.104 84.2812 472.578 89.5893C473.81 101.722 472.957 114.139 472.767 126.367C472.767 131.012 473.052 135.941 473.905 137.931C475.895 141.912 478.739 128.452 478.739 128.263C478.929 127.315 479.497 126.177 480.729 126.367C481.772 126.557 481.772 128.452 481.583 129.874C481.203 132.339 480.729 134.708 479.876 136.888C478.834 139.827 476.843 143.144 473.62 144.092C469.829 145.23 465.184 142.86 464.047 134.424C463.762 131.77 463.573 128.926 463.478 126.177C463.194 114.045 464.521 101.059 463.383 89.0206C463.194 86.8405 462.909 84.376 462.341 82.1959Z" fill="#00B4D8"/>
<path id="Can" d="M125.653 169.543C124.27 169.227 124.428 168.437 125.139 167.568C125.574 166.976 126.205 166.107 126.561 164.488C127.746 159.117 121.664 163.54 120.992 172.9C120.123 184.512 126.916 189.409 130.55 179.022C130.747 178.43 131.261 176.415 132.564 177.008C132.92 177.166 132.92 177.758 132.92 177.758C132.92 177.758 131.774 184.63 127.943 186.329C124.112 188.027 119.175 186.645 117.122 180.602C115.068 174.52 116.371 168.753 118.543 164.962C120.716 161.21 122.73 159.827 125.297 159.906C131.853 160.104 130.589 170.491 125.653 169.543ZM143.415 169.622C144.363 170.412 143.968 170.412 143.336 170.57C140.887 171.163 139.386 175.388 138.833 177.442C137.214 183.603 138.557 182.142 138.912 181.708C139.268 181.313 140.453 177.719 141.124 175.27C141.795 172.821 141.48 172.584 141.953 171.913C146.179 170.373 145.942 178.232 145.903 179.733C145.705 184.867 147.878 184.749 145.942 185.223C140.769 186.447 142.111 178.627 142.388 175.625C141.203 178.706 140.927 183.09 137.609 184.354C136.227 184.867 134.844 184.551 134.331 182.537C133.107 177.284 138.873 165.87 143.415 169.622ZM148.751 173.611C148.474 173.295 148.119 172.861 148.79 172.584C148.79 172.584 150.212 172.11 151.278 172.94C152.542 173.927 152.582 174.796 152.779 176.297C152.779 176.297 154.24 170.965 155.504 170.254C156.729 169.543 158.348 170.215 158.624 172.387C159.138 176.178 157.913 180.444 158.94 184.196C158.94 184.196 159.454 184.907 157.953 184.907C156.452 184.907 154.833 184.314 154.793 181.708C154.754 179.101 154.872 174.875 154.872 174.875C154.872 174.875 154.003 176.415 153.372 180.246C153.056 182.182 153.608 185.183 150.804 184.512C149.817 184.275 148.869 183.327 148.948 180.839C148.948 180.049 149.54 174.401 148.751 173.611Z" fill="#FF6D00"/>
<path id="Esat" d="M78.3075 87.1983C79.7293 89.8524 78.4023 88.9045 72.9994 91.369C67.5965 93.7387 64.658 100.469 64.0893 102.27C63.4258 104.165 62.5727 107.199 64.7528 107.767C66.9329 108.241 69.3974 105.113 71.4828 106.63C73.6629 108.146 73.3785 110.706 73.3785 110.706C73.3785 110.706 67.1225 119.521 63.2362 129.379C59.4447 139.142 60.8665 145.398 66.1746 143.408C71.4828 141.417 74.2316 134.592 75.843 131.275C77.5492 127.862 76.6961 125.682 80.1085 126.44C83.5208 127.199 86.554 131.749 83.7104 137.815C75.0847 156.488 47.4067 155.161 51.4825 134.592C54.7053 119.047 62.2883 112.317 62.2883 112.317C62.2883 112.317 59.8239 112.791 57.4542 111.748C51.9565 109.473 54.8949 99.426 56.7906 95.1605C60.4874 86.7244 72.9046 77.53 78.3075 87.1983ZM105.845 109.568C106.793 110.327 107.077 112.696 105.371 112.317C101.295 111.274 92.6693 120.753 97.5983 124.45C100.726 126.82 104.423 127.862 105.276 130.99C108.404 142.08 86.8873 149.379 88.3091 136.488C88.4987 134.877 89.257 134.877 89.8257 135.161C92.2902 136.204 94.1859 135.73 96.5556 134.308C99.968 132.223 99.5888 129.189 95.3234 127.673C88.4987 125.208 86.5081 121.701 89.1622 115.54C90.0153 113.455 91.4371 111.274 93.712 109.473C100.916 103.691 105.845 109.568 105.845 109.568ZM132.666 107.293C134.941 109.189 133.993 109.189 132.477 109.568C126.6 110.99 122.998 121.132 121.671 126.061C117.784 140.848 121.007 137.341 121.86 136.298C122.713 135.351 125.557 126.725 127.168 120.848C128.78 114.971 128.021 114.402 129.159 112.791C139.301 109.094 138.733 127.957 138.638 131.559C138.164 143.881 143.377 143.597 138.733 144.735C126.315 147.673 129.538 128.905 130.202 121.701C127.358 129.095 126.694 139.616 118.732 142.649C115.415 143.881 112.097 143.123 110.865 138.289C107.926 125.682 121.765 98.2885 132.666 107.293ZM171.254 93.7387C171.728 93.5491 172.297 95.1605 171.634 97.0563C170.686 99.7103 168.032 100.848 165.283 101.511C162.723 102.08 159.595 102.364 156.373 102.459C156.278 109.473 155.994 117.341 155.804 121.701C155.425 133.17 155.14 145.303 157.7 152.792C158.174 154.119 158.079 154.782 156.657 155.161C144.24 157.815 146.23 129.758 146.42 122.933C146.515 117.53 146.989 103.691 146.989 103.786C146.894 103.786 146.989 103.217 146.989 102.364C144.429 102.27 142.249 102.175 140.638 102.08C133.339 101.701 131.254 103.597 131.254 103.597C130.496 103.881 129.169 99.8999 132.297 97.2458C135.14 94.8761 139.216 94.5918 143.102 94.5918C144.24 94.6866 145.567 94.6866 147.178 94.7814C147.178 93.2648 147.178 91.7481 147.178 90.4211C147.178 86.2505 147.652 84.5443 145.282 80.8475C143.387 77.9091 156.278 75.9186 156.562 89.2837C156.657 90.4211 156.562 92.4117 156.562 95.0657C162.439 95.0657 168.411 94.8761 171.254 93.7387Z" fill="#FF9E00"/>
</g>
</g>
</svg>
